<?xml version="1.0" standalone="no"?>
<!DOCTYPE svg PUBLIC "-//W3C//DTD SVG 20010904//EN"
 "http://www.w3.org/TR/2001/REC-SVG-20010904/DTD/svg10.dtd">
<svg version="1.0" xmlns="http://www.w3.org/2000/svg"
 width="128.000000pt" height="128.000000pt" viewBox="0 0 128.000000 128.000000"
 preserveAspectRatio="xMidYMid meet">
<metadata>
Created by potrace 1.11, written by Peter Selinger 2001-2013
</metadata>
<g transform="translate(0.000000,128.000000) scale(0.100000,-0.100000)"
fill="#000000" stroke="none">
<path d="M0 635 l0 -635 640 0 640 0 0 635 0 635 -640 0 -640 0 0 -635z m1125
181 c68 -45 52 -107 -60 -225 -71 -75 -235 -214 -243 -206 -3 2 19 30 47 61
126 138 122 232 -12 265 -120 30 -484 2 -734 -57 -19 -4 -25 -3 -18 4 24 24
593 155 765 176 80 10 228 -1 255 -18z m-224 -168 c20 -30 6 -55 -71 -131 -83
-81 -117 -98 -61 -30 37 45 41 87 9 105 -32 17 -192 14 -302 -6 -159 -28 -104
-3 96 44 174 41 310 48 329 18z"/>
</g>
</svg>
