<?xml version="1.0" standalone="no"?>
<!DOCTYPE svg PUBLIC "-//W3C//DTD SVG 20010904//EN"
 "http://www.w3.org/TR/2001/REC-SVG-20010904/DTD/svg10.dtd">
<svg version="1.0" xmlns="http://www.w3.org/2000/svg"
 width="128.000000pt" height="128.000000pt" viewBox="0 0 128.000000 128.000000"
 preserveAspectRatio="xMidYMid meet">
<metadata>
Created by potrace 1.11, written by Peter Selinger 2001-2013
</metadata>
<g transform="translate(0.000000,128.000000) scale(0.100000,-0.100000)"
fill="#000000" stroke="none">
<path d="M856 1104 c-120 -18 -249 -46 -436 -95 -175 -45 -185 -48 -178 -54 3
-3 69 6 147 19 375 66 594 53 625 -37 13 -36 -18 -101 -81 -168 -104 -111 12
-40 153 94 46 43 83 89 100 122 23 48 24 56 12 82 -8 17 -27 33 -48 40 -46 16
-183 14 -294 -3z"/>
<path d="M830 964 c-181 -33 -340 -72 -340 -84 0 -4 33 0 73 8 39 8 117 15
173 16 141 2 163 -21 104 -102 -17 -23 -26 -42 -21 -42 15 0 116 86 134 114
19 28 22 71 7 81 -13 8 -100 14 -130 9z"/>
<path d="M388 779 c-148 -22 -198 -85 -249 -317 -66 -297 -25 -349 261 -340
142 4 185 19 238 84 26 31 62 126 62 162 0 8 -28 12 -94 12 l-94 0 -7 -30
c-10 -45 -48 -70 -109 -70 -77 0 -91 14 -83 86 10 96 45 217 67 236 26 21 95
31 135 20 25 -7 30 -14 33 -45 l3 -37 93 0 94 0 6 31 c3 17 6 56 6 85 0 100
-64 136 -234 133 -39 -1 -97 -5 -128 -10z"/>
</g>
</svg>
